<?xml version="1.0" standalone="no"?>
<!DOCTYPE svg PUBLIC "-//W3C//DTD SVG 20010904//EN"
 "http://www.w3.org/TR/2001/REC-SVG-20010904/DTD/svg10.dtd">
<svg version="1.0" xmlns="http://www.w3.org/2000/svg"
 width="980.000000pt" height="980.000000pt" viewBox="0 0 980.000000 980.000000"
 preserveAspectRatio="xMidYMid meet">
<metadata>
Created by potrace 1.11, written by Peter Selinger 2001-2013
</metadata>
<g transform="translate(0.000000,980.000000) scale(0.100000,-0.100000)"
fill="#000000" stroke="none">
<path d="M4700 9784 c-332 -71 -645 -332 -773 -644 -19 -47 -41 -111 -48 -143
-7 -32 -17 -61 -23 -65 -6 -4 -276 -9 -601 -12 l-590 -5 -3 -215 c-1 -118 1
-382 6 -586 l8 -371 29 -59 c40 -79 143 -183 223 -223 37 -19 92 -36 135 -42
49 -8 658 -13 1878 -16 l1806 -5 54 27 c143 73 240 161 291 263 44 88 49 170
46 742 l-3 485 -592 5 c-376 3 -595 9 -601 15 -5 6 -17 42 -27 80 -86 327
-331 590 -675 725 -145 57 -387 77 -540 44z m373 -330 c121 -26 227 -85 328
-182 77 -73 96 -98 134 -176 63 -128 76 -187 82 -358 l5 -148 462 0 c253 0
518 -3 589 -7 l127 -6 0 -366 c0 -398 -4 -435 -48 -453 -36 -16 -1566 -25
-2765 -17 -644 4 -920 9 -939 17 -44 18 -48 55 -48 453 l0 366 128 6 c70 4
333 7 584 7 l457 0 5 53 c3 28 8 95 11 147 10 168 51 286 140 406 88 118 234
214 388 254 92 24 261 26 360 4z"/>
<path d="M4805 9196 c-126 -31 -252 -137 -319 -268 -109 -216 -11 -466 229
-584 134 -66 236 -65 372 2 178 88 291 281 268 459 -16 132 -139 295 -267 355
-103 48 -188 59 -283 36z m174 -344 c54 -40 64 -130 20 -186 -69 -88 -229 -28
-229 85 0 45 33 97 73 115 40 18 102 12 136 -14z"/>
<path d="M1180 4310 l0 -4310 3720 0 3720 0 0 4310 0 4310 -530 0 -530 0 0
-165 0 -165 365 0 365 0 0 -3980 0 -3980 -3390 0 -3390 0 0 3980 0 3980 365 0
365 0 0 165 0 165 -530 0 -530 0 0 -4310z"/>
<path d="M2820 5795 l0 -165 2080 0 2080 0 0 165 0 165 -2080 0 -2080 0 0
-165z"/>
<path d="M3000 4173 c-116 -3 -166 -7 -172 -16 -4 -6 -8 -78 -8 -159 l0 -148
2083 0 2082 0 -3 127 c-1 71 -5 142 -7 159 l-5 31 -668 6 c-630 7 -2947 6
-3302 0z"/>
<path d="M2850 2391 l-25 -7 -3 -157 -3 -157 2083 0 2083 0 -3 122 c-1 68 -5
142 -8 166 l-5 42 -2047 -1 c-1126 -1 -2058 -4 -2072 -8z"/>
</g>
</svg>
